HIERARCHY
ROOT SpineBase
{
  OFFSET 0.000000 0.000000 0.000000
  CHANNELS 6 Xposition Yposition Zposition Zrotation Xrotation Yrotation
  JOINT SpineMid
  {
    OFFSET 0.000000 29.708545 0.000000
    CHANNELS 3 Zrotation Xrotation Yrotation
    JOINT SpineShoulder
    {
      OFFSET 0.099730 22.109332 -0.697359
      CHANNELS 3 Zrotation Xrotation Yrotation
      JOINT Neck
      {
        OFFSET 0.070898 7.330608 -0.546632
        CHANNELS 3 Zrotation Xrotation Yrotation
        JOINT Head
        {
          OFFSET -4.351807 13.719085 0.016155
          CHANNELS 3 Zrotation Xrotation Yrotation
          End Site
          {
            OFFSET 0 0 0
          }
        }
      }
      JOINT ShoulderLeft
      {
        OFFSET -15.506926 -4.205655 6.062859
        CHANNELS 3 Zrotation Xrotation Yrotation
        JOINT ElbowLeft
        {
          OFFSET -0.935563 -28.311464 5.705513
          CHANNELS 3 Zrotation Xrotation Yrotation
          JOINT WristLeft
          {
            OFFSET 0.071076 -18.741689 -13.728868
            CHANNELS 3 Zrotation Xrotation Yrotation
            JOINT HandLeft
            {
              OFFSET 3.532780 -1.946833 0.661735
              CHANNELS 3 Zrotation Xrotation Yrotation
              JOINT HandTipLeft
              {
                OFFSET -0.083189 -6.096885 -0.869091
                CHANNELS 3 Zrotation Xrotation Yrotation
                End Site
                {
                  OFFSET 0 0 0
                }
              }
              JOINT ThumbLeft
              {
                OFFSET -1.833654 -0.588585 1.790532
                CHANNELS 3 Zrotation Xrotation Yrotation
                End Site
                {
                  OFFSET 0 0 0
                }
              }
            }
          }
        }
      }
      JOINT ShoulderRight
      {
        OFFSET 13.997702 -2.995363 -7.467919
        CHANNELS 3 Zrotation Xrotation Yrotation
        JOINT ElbowRight
        {
          OFFSET 6.662012 -25.491593 0.079158
          CHANNELS 3 Zrotation Xrotation Yrotation
          JOINT WristRight
          {
            OFFSET -1.769650 -22.179370 -4.946043
            CHANNELS 3 Zrotation Xrotation Yrotation
            JOINT HandRight
            {
              OFFSET -1.661024 -2.416115 0.266233
              CHANNELS 3 Zrotation Xrotation Yrotation
              JOINT HandTipRight
              {
                OFFSET -1.472950 -7.286582 -0.187016
                CHANNELS 3 Zrotation Xrotation Yrotation
                End Site
                {
                  OFFSET 0 0 0
                }
              }
              JOINT ThumbRight
              {
                OFFSET -3.373986 0.434516 -1.833230
                CHANNELS 3 Zrotation Xrotation Yrotation
                End Site
                {
                  OFFSET 0 0 0
                }
              }
            }
          }
        }
      }
    }
  }
  JOINT HipLeft
  {
    OFFSET -6.401707 0.310872 -1.105671
    CHANNELS 3 Zrotation Xrotation Yrotation
    JOINT KneeLeft
    {
      OFFSET 3.861089 -29.965297 7.398523
      CHANNELS 3 Zrotation Xrotation Yrotation
      JOINT AnkleLeft
      {
        OFFSET 6.309228 -31.257597 4.370495
        CHANNELS 3 Zrotation Xrotation Yrotation
        JOINT FootLeft
        {
          OFFSET -3.875772 -3.705216 -12.453038
          CHANNELS 3 Zrotation Xrotation Yrotation
          End Site
          {
            OFFSET 0 0 0
          }
        }
      }
    }
  }
  JOINT HipRight
  {
    OFFSET 7.128468 1.427351 -5.635829
    CHANNELS 3 Zrotation Xrotation Yrotation
    JOINT KneeRight
    {
      OFFSET 6.221474 -27.662528 3.931004
      CHANNELS 3 Zrotation Xrotation Yrotation
      JOINT AnkleRight
      {
        OFFSET 1.809376 -32.746935 7.429105
        CHANNELS 3 Zrotation Xrotation Yrotation
        JOINT FootRight
        {
          OFFSET -3.892821 -3.687698 -12.474619
          CHANNELS 3 Zrotation Xrotation Yrotation
          End Site
          {
            OFFSET 0 0 0
          }
        }
      }
    }
  }
}
MOTION
Frames: 15
Frame Time: 0.033333
-34.717301 63.618093 341.416500 22.749099 -5.495125 33.736003 -0.223074 0.135501 -31.873080 -0.639896 0.069678 0.974551 9.194626 13.318586 -3.283268 0.000000 0.000000 0.000000 -59.021174 49.180014 10.497389 -14.531252 82.100803 47.582209 100.334123 5.049508 129.875644 57.999693 -4.384764 -35.922281 0.000000 0.000000 0.000000 0.000000 0.000000 0.000000 9.996829 8.702637 -3.625164 -22.634509 -12.893193 -2.027145 19.415718 -8.161367 20.378168 -7.303869 13.432296 -17.500370 0.000000 0.000000 0.000000 0.000000 0.000000 0.000000 -8.589471 21.677148 -30.777845 -8.913865 -4.576776 -2.876656 15.624644 -31.505169 -29.948810 0.000000 0.000000 0.000000 -12.049199 15.025839 -30.597685 -8.847089 5.414919 -1.318865 12.575618 -21.974740 -14.885837 0.000000 0.000000 0.000000
-34.398623 63.703104 341.383004 22.627350 -5.522534 33.100687 -0.107614 0.132442 -31.256576 -0.654559 0.070138 0.972745 7.376842 13.494907 -2.965334 0.000000 0.000000 0.000000 -56.576471 51.742325 10.584216 -13.069396 81.044123 43.170436 105.528386 6.322814 130.075324 62.018599 -3.932028 -34.717948 0.000000 0.000000 0.000000 0.000000 0.000000 0.000000 9.433789 8.521949 -3.538615 -23.214538 -12.391895 -1.883939 21.466765 -8.856113 20.796770 -9.020202 15.222331 -17.774738 0.000000 0.000000 0.000000 0.000000 0.000000 0.000000 -9.919282 21.894676 -30.070209 -7.438394 -4.404539 -2.378200 15.426301 -33.030929 -28.975043 0.000000 0.000000 0.000000 -13.320482 15.306467 -29.878995 -8.345660 6.157221 -1.148836 13.484600 -12.500921 -24.780617 0.000000 0.000000 0.000000
-34.022104 63.698708 341.351344 22.477109 -5.528000 32.278188 -0.119872 0.198027 -30.455058 -0.710270 0.066591 0.963013 6.118933 13.785239 -2.680310 0.000000 0.000000 0.000000 -54.925130 53.053303 10.501736 -17.225022 80.715734 45.347808 106.265892 7.591153 131.420040 66.324627 -7.213044 -33.199818 0.000000 0.000000 0.000000 0.000000 0.000000 0.000000 9.167151 8.307577 -3.453698 -23.757303 -12.070422 -1.712122 22.782775 -9.733257 21.384517 -9.175468 16.813893 -18.549168 0.000000 0.000000 0.000000 0.000000 0.000000 0.000000 -11.293385 21.968652 -29.169495 -6.183024 -4.261022 -1.954068 15.333940 -33.394326 -28.912845 0.000000 0.000000 0.000000 -13.742278 15.484923 -29.022848 -8.011592 5.965759 -1.178135 13.496646 -9.297218 -25.725702 0.000000 0.000000 0.000000
-33.591505 63.643711 341.303638 22.298723 -5.512957 31.393068 -0.152710 0.267580 -29.595774 -0.716852 0.084603 0.948043 5.048129 14.411098 -2.379305 0.000000 0.000000 0.000000 -53.341301 52.957367 9.889581 -23.458786 80.828506 50.075293 107.123895 10.999484 131.193207 73.555928 5.053374 -101.852556 0.000000 0.000000 0.000000 0.000000 0.000000 0.000000 9.002755 8.175402 -3.370438 -23.642853 -11.972986 -1.648872 23.126582 -8.588716 19.999855 -10.523443 15.273235 -17.069963 0.000000 0.000000 0.000000 0.000000 0.000000 0.000000 -12.625973 21.922109 -28.217047 -5.115781 -4.134545 -1.592841 15.320628 -33.134209 -28.892050 0.000000 0.000000 0.000000 -14.377016 15.551459 -28.108939 -7.768091 5.970076 -1.173277 14.103357 -5.565193 -27.872730 0.000000 0.000000 0.000000
-33.161660 63.499298 341.245658 22.010621 -5.474913 30.572580 -0.238091 0.387371 -28.816800 -0.683233 0.133793 0.919905 4.598079 15.228054 -2.099797 0.000000 0.000000 0.000000 -52.458149 51.633909 9.156324 -33.182926 81.149456 59.269681 105.710995 14.236600 131.289772 68.884788 -6.817726 -58.387843 0.000000 0.000000 0.000000 0.000000 0.000000 0.000000 9.167144 7.970103 -3.278220 -24.104547 -11.945356 -1.552327 24.059373 -8.074362 19.255212 -10.728052 14.542554 -16.672065 0.000000 0.000000 0.000000 0.000000 0.000000 0.000000 -13.616809 21.744270 -27.380994 -4.381097 -4.127232 -1.359614 15.398921 -32.362310 -28.525362 0.000000 0.000000 0.000000 -14.484892 15.717513 -27.291494 -7.087719 5.133981 -1.242248 12.607506 -4.009587 -24.459601 0.000000 0.000000 0.000000
-32.690832 63.371006 341.108123 21.670918 -5.317604 29.742691 -0.324353 0.468582 -28.050190 -0.599204 0.188403 0.890348 4.309966 16.029486 -1.810861 0.000000 0.000000 0.000000 -50.421709 49.209944 7.632760 -44.787498 81.004905 69.489505 104.460966 18.494815 130.678723 64.578610 -7.234125 -55.052493 0.000000 0.000000 0.000000 0.000000 0.000000 0.000000 9.301717 7.796579 -3.153594 -24.312157 -12.003907 -1.534377 24.285201 -7.646376 18.560138 -11.804475 15.029519 -16.129198 0.000000 0.000000 0.000000 0.000000 0.000000 0.000000 -14.530969 21.269948 -26.585473 -3.922963 -4.050116 -1.192327 15.825778 -33.257772 -26.497775 0.000000 0.000000 0.000000 -14.871197 15.744993 -26.489338 -6.050747 4.310220 -1.207377 10.482732 -2.536138 -19.629999 0.000000 0.000000 0.000000
-32.232081 63.415989 340.884451 21.278414 -5.056784 29.266584 -0.391966 0.513755 -27.656933 -0.471515 0.247543 0.860391 3.809870 16.870398 -1.446919 0.000000 0.000000 0.000000 -48.245405 46.220881 5.988828 -56.422501 80.492828 79.614673 95.610442 22.740907 133.583285 57.588605 -13.820265 -32.808824 0.000000 0.000000 0.000000 0.000000 0.000000 0.000000 9.138900 7.659062 -2.973635 -24.097628 -12.125349 -1.571653 24.374451 -7.003873 17.678633 -13.580308 14.769893 -15.016707 0.000000 0.000000 0.000000 0.000000 0.000000 0.000000 -15.454918 20.733143 -26.202975 -3.265221 -3.866086 -0.949529 16.082899 -33.324715 -26.358216 0.000000 0.000000 0.000000 -15.706846 15.494357 -26.088216 -4.593844 4.104367 -0.933509 8.415588 -1.069109 -15.555068 0.000000 0.000000 0.000000
-31.865139 63.504260 340.629079 20.904281 -4.727414 29.015866 -0.491775 0.572197 -27.497887 -0.343156 0.314408 0.828882 3.017174 17.444116 -1.019749 0.000000 0.000000 0.000000 -45.228168 43.242396 4.272019 -65.767968 78.655653 86.085945 80.699111 23.832574 140.963899 49.887142 -21.639261 -34.835523 0.000000 0.000000 0.000000 0.000000 0.000000 0.000000 9.105062 7.408746 -2.782438 -23.805397 -12.154201 -1.621536 24.374152 -6.422475 16.943196 -13.831945 13.793345 -14.383897 0.000000 0.000000 0.000000 0.000000 0.000000 0.000000 -16.148922 20.133080 -26.088110 -2.787494 -3.690151 -0.767205 16.294705 -33.213275 -27.418649 0.000000 0.000000 0.000000 -15.815129 15.389953 -25.938719 -3.780677 3.131289 -0.924713 6.660872 -2.741009 -9.827767 0.000000 0.000000 0.000000
-31.757227 63.556354 340.464177 20.226771 -4.487558 28.782801 -0.477675 0.687072 -27.378817 -0.374053 0.354272 0.788370 3.077578 17.746772 -0.689937 0.000000 0.000000 0.000000 -42.093158 41.051933 3.027969 -69.234064 76.186200 86.526014 67.489778 19.940961 147.802451 39.225449 -29.102487 -36.666206 0.000000 0.000000 0.000000 0.000000 0.000000 0.000000 9.707547 7.145719 -2.600866 -23.692991 -12.112369 -1.690911 24.380184 -5.745165 16.114883 -14.527704 12.184966 -13.374591 0.000000 0.000000 0.000000 0.000000 0.000000 0.000000 -16.054272 19.418704 -26.056897 -2.681275 -3.607589 -0.718036 16.392379 -32.637444 -29.513399 0.000000 0.000000 0.000000 -15.329805 14.841214 -25.907994 -3.822606 2.852543 -0.962340 5.434890 0.062403 -7.848275 0.000000 0.000000 0.000000
-31.571518 63.605833 340.306265 19.626759 -4.206479 28.585763 -0.485021 0.781457 -27.288931 -0.357909 0.377768 0.755516 3.274723 17.659848 -0.456773 0.000000 0.000000 0.000000 -39.929734 39.088996 2.153817 -71.394013 73.594465 86.378153 57.798156 10.741652 151.501983 36.100623 -31.335496 -73.881365 0.000000 0.000000 0.000000 0.000000 0.000000 0.000000 9.324393 7.086653 -2.348336 -22.777443 -12.174905 -1.795711 23.947406 -5.045161 15.097935 -14.841930 10.134206 -12.203412 0.000000 0.000000 0.000000 0.000000 0.000000 0.000000 -16.210027 18.885142 -26.053987 -2.289061 -3.632338 -0.612221 16.574730 -33.362703 -29.426147 0.000000 0.000000 0.000000 -14.901027 14.560116 -25.864678 -3.752985 2.091574 -1.073682 5.142876 0.169942 -6.618079 0.000000 0.000000 0.000000
-31.434533 63.723527 340.119771 19.108389 -3.865551 28.411997 -0.451464 0.787531 -27.214852 -0.339662 0.375470 0.733952 3.203400 17.392866 -0.243945 0.000000 0.000000 0.000000 -38.860744 38.095331 1.717188 -72.292710 71.898271 86.123723 54.871109 5.745264 152.236348 38.785587 -38.549950 -64.676394 0.000000 0.000000 0.000000 0.000000 0.000000 0.000000 8.568868 7.184661 -2.095973 -21.615333 -12.316391 -1.946201 23.271202 -4.477777 14.190903 -14.197692 7.503265 -11.146018 0.000000 0.000000 0.000000 0.000000 0.000000 0.000000 -16.357850 18.179722 -26.079041 -2.004615 -3.414166 -0.487951 16.806265 -34.776937 -28.103856 0.000000 0.000000 0.000000 -14.446061 14.296944 -25.832449 -3.845857 1.177652 -1.245081 6.802124 -3.775192 -7.915780 0.000000 0.000000 0.000000
-31.279834 63.933769 339.885744 18.598775 -3.481259 28.522894 -0.397536 0.754112 -27.424235 -0.309257 0.366279 0.715821 2.877907 16.942017 -0.024651 0.000000 0.000000 0.000000 -35.783873 36.018159 0.775006 -75.020744 68.993390 85.270362 53.887500 -0.319227 151.924749 43.176145 -32.240078 -102.234306 0.000000 0.000000 0.000000 0.000000 0.000000 0.000000 7.709387 7.259169 -1.843858 -20.383681 -12.375412 -2.091475 22.358168 -3.925588 13.241722 -12.258627 3.647365 -9.935799 0.000000 0.000000 0.000000 0.000000 0.000000 0.000000 -16.615676 17.742229 -26.402147 -1.337394 -3.438862 -0.318950 16.780650 -35.258353 -27.932419 0.000000 0.000000 0.000000 -14.153643 13.949879 -26.099632 -3.923741 0.521561 -1.360718 8.570241 -7.569783 -9.721179 0.000000 0.000000 0.000000
-31.172258 64.223515 339.608274 18.066537 -3.085353 28.841645 -0.378622 0.688074 -27.833003 -0.324760 0.350702 0.695283 2.644889 16.426690 0.167827 0.000000 0.000000 0.000000 -33.753759 33.190644 0.059301 -76.694994 65.728533 84.553086 55.494014 -4.001179 149.972931 51.613910 -20.408373 -135.683860 0.000000 0.000000 0.000000 0.000000 0.000000 0.000000 6.700161 7.387463 -1.583140 -18.904486 -12.397080 -2.229247 21.405494 -3.435400 12.345290 -11.065679 0.140201 -8.522348 0.000000 0.000000 0.000000 0.000000 0.000000 0.000000 -16.776032 17.410037 -26.942849 -0.539456 -3.553728 -0.142714 16.563571 -35.406801 -28.346015 0.000000 0.000000 0.000000 -13.166368 13.807724 -26.547794 -3.991264 -1.041723 -1.603165 7.966694 -10.509731 -3.934299 0.000000 0.000000 0.000000
-31.122158 64.523033 339.334142 17.544883 -2.722279 29.221644 -0.387745 0.612088 -28.289946 -0.341787 0.332751 0.674847 2.187774 16.065904 0.393486 0.000000 0.000000 0.000000 -30.839301 28.763723 -0.769251 -79.725859 62.464106 84.731125 56.272847 -6.412797 147.366133 54.946482 -5.354488 -155.751832 0.000000 0.000000 0.000000 0.000000 0.000000 0.000000 5.901957 7.675980 -1.347714 -17.730633 -12.669881 -2.385516 19.927399 -2.726090 11.157537 -7.479067 -3.705859 -7.132187 0.000000 0.000000 0.000000 0.000000 0.000000 0.000000 -16.866523 17.178736 -27.532625 0.353991 -3.743936 0.035918 16.143009 -35.014158 -29.149347 0.000000 0.000000 0.000000 -13.276570 12.875036 -27.154333 -3.975231 -0.281853 -1.420064 8.604403 -12.504382 -2.963959 0.000000 0.000000 0.000000
-31.114946 64.884407 339.056924 16.968486 -2.410750 29.941184 -0.402796 0.542484 -29.078123 -0.360910 0.314679 0.651847 1.794638 15.623980 0.586005 0.000000 0.000000 0.000000 -27.295764 23.462196 -1.412787 -80.066159 59.741591 82.269885 57.255002 -6.426592 142.538139 52.748611 -4.949686 -147.931520 0.000000 0.000000 0.000000 0.000000 0.000000 0.000000 5.261581 7.816830 -1.138864 -16.894578 -12.728786 -2.454482 18.861941 -2.401509 10.325003 -5.206914 -6.048556 -6.066099 0.000000 0.000000 0.000000 0.000000 0.000000 0.000000 -16.789281 17.281132 -28.454090 1.467986 -4.170684 0.226333 15.574846 -34.346636 -30.062166 0.000000 0.000000 0.000000 -12.887074 12.638580 -28.014040 -3.029487 -0.791173 -1.250792 8.817551 -17.597618 1.965565 0.000000 0.000000 0.000000
